<svg width="160" height="104" viewBox="0 0 160 104" fill="none" xmlns="http://www.w3.org/2000/svg">
  <path d="M24.7 26L25.7534 28.8467L28.6 29.9L25.7534 30.9534L24.7 33.8L23.6466 30.9534L20.8 29.9L23.6466 28.8467L24.7 26Z" fill="#DEE5F3"/>
  <path d="M71.5 46.8L72.5534 49.6467L75.4 50.7L72.5534 51.7534L71.5 54.6L70.4466 51.7534L67.6 50.7L70.4466 49.6467L71.5 46.8Z" fill="#DEE5F3"/>
  <path d="M35.1 93.6L36.1534 96.4467L39 97.5L36.1534 98.5534L35.1 101.4L34.0466 98.5534L31.2 97.5L34.0466 96.4467L35.1 93.6Z" fill="#DEE5F3"/>
  <path d="M48.1 54.6L48.4512 55.5489L49.4 55.9L48.4512 56.2512L48.1 57.2L47.7489 56.2512L46.8 55.9L47.7489 55.5489L48.1 54.6Z" fill="#DEE5F3"/>
  <path d="M27.3 72.8L27.6512 73.7489L28.6 74.1L27.6512 74.4512L27.3 75.4L26.9489 74.4512L26 74.1L26.9489 73.7489L27.3 72.8Z" fill="#DEE5F3"/>
  <path d="M56.55 98.8L57.0766 100.223L58.5 100.75L57.0766 101.277L56.55 102.7L56.0233 101.277L54.6 100.75L56.0233 100.223L56.55 98.8Z" fill="#DEE5F3"/>
  <g filter="url(#filter0_f_1_126)">
    <path d="M22.75 46.8L23.2767 48.2233L24.7 48.75L23.2767 49.2767L22.75 50.7L22.2233 49.2767L20.8 48.75L22.2233 48.2233L22.75 46.8Z" fill="#DEE5F3"/>
  </g>
  <path d="M11.7 85.8L12.0512 86.7489L13 87.1L12.0512 87.4512L11.7 88.4L11.3489 87.4512L10.4 87.1L11.3489 86.7489L11.7 85.8Z" fill="#DEE5F3"/>
  <path d="M76.7 80.6L77.0512 81.5489L78 81.9L77.0512 82.2512L76.7 83.2L76.3489 82.2512L75.4 81.9L76.3489 81.5489L76.7 80.6Z" fill="#DEE5F3"/>
  <path d="M53.3 13L53.6512 13.9489L54.6 14.3L53.6512 14.6512L53.3 15.6L52.9489 14.6512L52 14.3L52.9489 13.9489L53.3 13Z" fill="#DEE5F3"/>
  <path d="M1.3 54.6L1.65123 55.5489L2.6 55.9L1.65123 56.2512L1.3 57.2L0.948864 56.2512L0 55.9L0.948864 55.5489L1.3 54.6Z" fill="#DEE5F3"/>
  <path d="M92.3 0L93.3534 2.84668L96.2 3.9L93.3534 4.95335L92.3 7.8L91.2466 4.95335L88.4 3.9L91.2466 2.84668L92.3 0Z" fill="#DEE5F3"/>
  <path d="M152.1 26L153.153 28.8467L156 29.9L153.153 30.9534L152.1 33.8L151.047 30.9534L148.2 29.9L151.047 28.8467L152.1 26Z" fill="#DEE5F3"/>
  <path d="M115.7 85.8L116.753 88.6467L119.6 89.7L116.753 90.7534L115.7 93.6L114.647 90.7534L111.8 89.7L114.647 88.6467L115.7 85.8Z" fill="#DEE5F3"/>
  <path d="M128.7 33.8L129.051 34.7489L130 35.1L129.051 35.4512L128.7 36.4L128.349 35.4512L127.4 35.1L128.349 34.7489L128.7 33.8Z" fill="#DEE5F3"/>
  <path d="M118.3 62.4L118.651 63.3489L119.6 63.7L118.651 64.0512L118.3 65L117.949 64.0512L117 63.7L117.949 63.3489L118.3 62.4Z" fill="#DEE5F3"/>
  <path d="M131.95 49.4L132.477 50.8233L133.9 51.35L132.477 51.8767L131.95 53.3L131.423 51.8767L130 51.35L131.423 50.8233L131.95 49.4Z" fill="#DEE5F3"/>
  <g filter="url(#filter1_f_1_126)">
    <path d="M103.35 26L103.877 27.4233L105.3 27.95L103.877 28.4767L103.35 29.9L102.823 28.4767L101.4 27.95L102.823 27.4233L103.35 26Z" fill="#DEE5F3"/>
  </g>
  <g filter="url(#filter2_f_1_126)">
    <path d="M92.3 62.4L92.6512 63.3489L93.6 63.7L92.6512 64.0512L92.3 65L91.9489 64.0512L91 63.7L91.9489 63.3489L92.3 62.4Z" fill="#DEE5F3"/>
  </g>
  <path d="M157.3 59.8L157.651 60.7489L158.6 61.1L157.651 61.4512L157.3 62.4L156.949 61.4512L156 61.1L156.949 60.7489L157.3 59.8Z" fill="#DEE5F3"/>
  <path d="M144.3 7.8L144.651 8.74889L145.6 9.1L144.651 9.45121L144.3 10.4L143.949 9.45121L143 9.1L143.949 8.74889L144.3 7.8Z" fill="#DEE5F3"/>
  <path d="M81.9 33.8L82.25 34.7489L83.2 35.1L82.25 35.4512L81.9 36.4L81.5489 35.4512L80.6 35.1L81.5489 34.7489L81.9 33.8Z" fill="#DEE5F3"/>
  <defs>
    <filter id="filter0_f_1_126" x="20.28" y="46.28" width="4.94" height="4.94" filterUnits="userSpaceOnUse" color-interpolation-filters="sRGB">
      <feFlood flood-opacity="0" result="BackgroundImageFix"/>
      <feBlend mode="normal" in="SourceGraphic" in2="BackgroundImageFix" result="shape"/>
      <feGaussianBlur stdDeviation="0.26" result="effect1_foregroundBlur_1_126"/>
    </filter>
    <filter id="filter1_f_1_126" x="101.88" y="25.48" width="4.94" height="4.94" filterUnits="userSpaceOnUse" color-interpolation-filters="sRGB">
      <feFlood flood-opacity="0" result="BackgroundImageFix"/>
      <feBlend mode="normal" in="SourceGraphic" in2="BackgroundImageFix" result="shape"/>
      <feGaussianBlur stdDeviation="0.26" result="effect1_foregroundBlur_1_126"/>
    </filter>
    <filter id="filter2_f_1_126" x="90.52" y="61.88" width="3.64" height="3.64" filterUnits="userSpaceOnUse" color-interpolation-filters="sRGB">
      <feFlood flood-opacity="0" result="BackgroundImageFix"/>
      <feBlend mode="normal" in="SourceGraphic" in2="BackgroundImageFix" result="shape"/>
      <feGaussianBlur stdDeviation="0.26" result="effect1_foregroundBlur_1_126"/>
    </filter>
  </defs>
</svg>
