<?xml version="1.0" encoding="utf-8" ?>
<svg baseProfile="tiny" height="32px" version="1.2" width="32px" xmlns="http://www.w3.org/2000/svg" xmlns:ev="http://www.w3.org/2001/xml-events" xmlns:xlink="http://www.w3.org/1999/xlink"><defs /><circle cx="16px" cy="10px" fill="none" r="8px" stroke="black" stroke-width="2" /><line stroke="black" stroke-width="2" x1="16px" x2="16px" y1="18px" y2="30px" /><rect fill="black" height="2px" width="8px" x="12px" y="30px" /><path d="M 16,0 C 20,0 24,6 24,10 C 24,12 22,14 20,14 C 18,14 16,12 16,10 C 16,8 14,6 12,6 C 10,6 8,8 8,10 C 8,12 6,14 4,14 C 2,14 0,12 0,10 C 0,6 4,0 8,0 Z" fill="none" stroke="black" stroke-width="2" /></svg>